<svg xmlns="http://www.w3.org/2000/svg" width="32.6" height="34.6" viewBox="0 0 32.6 34.6">
  <path id="gas-pump-solid" d="M2.037,4.325A4.209,4.209,0,0,1,6.112,0H16.3a4.209,4.209,0,0,1,4.075,4.325V17.3h.509a5.783,5.783,0,0,1,5.6,5.947v2.163a1.531,1.531,0,1,0,3.056,0V15a4.291,4.291,0,0,1-3.056-4.19V6.487L24.45,4.325a1.6,1.6,0,0,1,0-2.162,1.386,1.386,0,0,1,2.038,0l4.922,5.224A4.465,4.465,0,0,1,32.6,10.448V25.409a4.728,4.728,0,0,1-4.584,4.866,4.728,4.728,0,0,1-4.584-4.866V23.247a2.628,2.628,0,0,0-2.547-2.7h-.509v9.731a2.166,2.166,0,0,1,0,4.325H2.037a2.166,2.166,0,0,1,0-4.325ZM6.112,5.406v6.487a1.054,1.054,0,0,0,1.019,1.081h8.15A1.054,1.054,0,0,0,16.3,11.894V5.406a1.054,1.054,0,0,0-1.019-1.081H7.131A1.054,1.054,0,0,0,6.112,5.406Z"/>
</svg>
