<?xml version="1.0" encoding="UTF-8"?><svg id="Layer_1" xmlns="http://www.w3.org/2000/svg" viewBox="0 0 333.03 215.46"><path d="M331.55,43.84l-116.87,28.4-18.83-32.94c-.57-1,.19-2.23,1.34-2.18l133.14,5.95c.57.03,1,.35,1.22.77Z" fill="none" stroke="#f7931e" stroke-miterlimit="10" stroke-width="2"/><path d="M331.21,45.64l-87.33,74.22c-.7.59-1.76.41-2.21-.39l-18.91-33.09-3.86-6.74,112.81-35.36c.08.47-.06.99-.5,1.36Z" fill="none" stroke="#f7931e" stroke-miterlimit="10" stroke-width="2"/><path d="M330.04,44.93l-111.28,34.85-9.38,9.37c-.21.21-.55,0-.45-.28l5.67-16.38,115.29-27.99c.08.14.13.29.16.43Z" fill="none" stroke="#f7931e" stroke-miterlimit="10" stroke-width="2"/><line x1="209.04" y1="88.5" x2="222.04" y2="85.5" fill="none" stroke="#f7931e" stroke-miterlimit="10" stroke-width="2"/><path d="M.46,215.46l-.46-1.95c2.58-.61,5.17-1.22,7.77-1.87l.48,1.94c-2.61.65-5.21,1.26-7.79,1.87ZM16.02,211.56l-.53-1.93c2.74-.76,5.24-1.5,7.63-2.27l.61,1.9c-2.42.78-4.94,1.53-7.71,2.29ZM31.32,206.59l-.72-1.87c2.56-.99,5.01-2.04,7.28-3.13l.86,1.8c-2.32,1.11-4.81,2.18-7.42,3.19ZM45.88,199.58l-1.03-1.71c2.3-1.39,4.49-2.88,6.51-4.44l1.22,1.58c-2.08,1.6-4.33,3.14-6.7,4.57ZM58.67,189.64l-1.42-1.41c.31-.31.61-.63.92-.95,1.44-1.52,2.86-3.2,4.23-5l1.59,1.21c-1.41,1.85-2.88,3.59-4.37,5.16-.31.33-.63.66-.95.98ZM68.56,176.82l-1.7-1.06c1.27-2.04,2.57-4.28,3.98-6.87l1.76.96c-1.43,2.62-2.75,4.9-4.04,6.97ZM76.34,162.75l-1.78-.91c1.2-2.35,2.4-4.76,3.56-7.14l1.8.87c-1.16,2.4-2.36,4.81-3.57,7.18ZM83.33,148.31l-1.82-.83c1.11-2.42,2.2-4.87,3.25-7.29l1.83.79c-1.05,2.43-2.15,4.9-3.27,7.33ZM89.71,133.59l-1.85-.76c1-2.46,1.99-4.95,2.94-7.42l1.87.72c-.95,2.48-1.94,4.99-2.95,7.46ZM116.92,127.45c-.61,0-1.22,0-1.82-.01l.03-2c2.63.04,5.29,0,7.93-.15l.1,2c-2.07.11-4.17.16-6.24.16ZM107.04,127.03c-2.68-.23-5.38-.55-8.01-.96l.31-1.98c2.59.4,5.24.72,7.87.94l-.17,1.99ZM131.2,126.6l-.24-1.99c2.61-.31,5.25-.72,7.84-1.2l.37,1.97c-2.63.49-5.31.9-7.97,1.22ZM91.11,124.55c-2.62-.6-5.25-1.31-7.79-2.1l.59-1.91c2.5.77,5.08,1.46,7.65,2.06l-.45,1.95ZM147.04,123.63l-.5-1.94c2.55-.66,5.12-1.4,7.61-2.23l.62,1.9c-2.54.83-5.15,1.6-7.74,2.26ZM75.69,119.66c-2.82-1.28-5.13-2.67-7.05-4.27l1.28-1.54c1.78,1.48,3.94,2.78,6.6,3.99l-.82,1.82ZM95.44,118.6l-1.89-.65c1.02-2.96,1.68-5.36,2.07-7.56l1.97.35c-.41,2.3-1.09,4.8-2.15,7.86ZM162.36,118.59l-.75-1.85c2.45-.99,4.88-2.07,7.25-3.22l.88,1.8c-2.4,1.17-4.88,2.27-7.37,3.28ZM176.86,111.54l-1-1.73c2.29-1.32,4.56-2.73,6.73-4.19l1.12,1.66c-2.21,1.49-4.52,2.92-6.85,4.26ZM63.51,108.75l-.05-.12c-.73-1.73-1.1-3.58-1.1-5.52,0-.92.08-1.85.25-2.77l1.97.35c-.14.81-.22,1.62-.22,2.42,0,1.67.32,3.26.94,4.74l.05.1-1.83.8ZM95.85,102.75c-.03-.21-.07-.42-.1-.63-.41-2.22-1.3-4.35-2.65-6.33l1.65-1.13c1.51,2.21,2.51,4.6,2.96,7.1.04.23.08.46.11.69l-1.98.29ZM190.24,102.53l-1.23-1.57c1.98-1.55,3.91-3.18,5.75-4.84l1.34,1.48c-1.87,1.69-3.84,3.35-5.85,4.93ZM67.6,93.88l-1.59-1.21c1.76-2.32,4.01-4.16,6.51-5.32l.84,1.81c-2.2,1.02-4.19,2.65-5.75,4.71ZM87.67,90.56c-2.2-1.39-4.63-2.26-7.04-2.53l.22-1.99c2.71.3,5.44,1.28,7.89,2.83l-1.07,1.69Z" fill="#f7931e" stroke-width="0"/></svg>