<?xml version="1.0" encoding="UTF-8"?><svg id="Layer_2" xmlns="http://www.w3.org/2000/svg" viewBox="0 0 399.81 54.6"><g id="Layer_2-2"><path d="M57.82.63l-16.21,37.44c-1.03,2.38-3.38,3.93-5.98,3.93h-1.04c-2.6,0-4.95-1.55-5.98-3.93L12.82,1.42c-.29-.67.2-1.42.94-1.42h7.8c.7,0,1.33.42,1.6,1.06l11.57,27.15c.29.67,1.24.68,1.53,0L47.28,2.69c.71-1.63,2.31-2.69,4.09-2.69h6.04c.33,0,.55.33.42.63Z" fill="orange" stroke-width="0"/><path d="M83.36,9.85v5.87c0,1.14-.94,2.04-2.08,2.04,0,0-.01,0-.02,0-5.16,0-8.58,2.82-8.58,9v13.95c0,.71-.58,1.29-1.29,1.29h-5.42c-1.46,0-2.65-1.19-2.65-2.65V10.69c0-.54.44-.97.97-.97h7.6c.2,0,.37.16.37.37v2.06c0,.6.72.92,1.15.51,2.21-2.14,5.4-3.3,9.33-3.41.34,0,.62.27.62.6Z" fill="orange" stroke-width="0"/><path d="M232.58,23.52v13.91c0,2.53-2.05,4.57-4.57,4.57h-2.95c-1.01,0-1.84-.82-1.84-1.84v-15.2c0-5.22-2.34-7.62-6.12-7.62-4.2,0-7.14,2.7-7.14,8.46v12.08c0,2.27-1.84,4.12-4.12,4.12h-1.13c-2.27,0-4.12-1.84-4.12-4.12v-12.92c0-5.22-2.22-7.62-6.12-7.62-4.14,0-7.08,2.7-7.08,8.46v14.36c0,1.01-.82,1.84-1.84,1.84h-2.95c-2.53,0-4.57-2.05-4.57-4.57V10.48c0-.42.34-.76.76-.76h6.49c.93,0,1.69.76,1.69,1.69v.52c0,.54.63.82,1.04.46,2.35-2.07,5.52-3.15,9.1-3.15,4.01,0,7.49,1.38,9.82,4.18.44.53,1.22.56,1.7.07,2.6-2.68,6.41-4.25,10.74-4.25,7.68,0,13.2,4.44,13.2,14.28Z" fill="orange" stroke-width="0"/><path d="M272.78,42c-.49,0-.95-.24-1.23-.64l-7.65-11.06h-7.67c-.7,0-1.27.57-1.27,1.27v6.66c0,2.08-1.69,3.76-3.76,3.76h-4.56c-.77,0-1.39-.62-1.39-1.39V1.09c0-.6.49-1.09,1.09-1.09h17.08c11.22,0,18.24,5.82,18.24,15.24,0,5.88-2.78,10.3-7.59,12.77-.54.28-.71.98-.36,1.48l7.64,10.95c.46.66-.01,1.56-.81,1.56h-7.76ZM262.88,7.92h-6.57c-.75,0-1.35.6-1.35,1.35v12.11c0,.65.53,1.18,1.18,1.18h6.74c5.94,0,8.94-2.76,8.94-7.32s-3-7.32-8.94-7.32Z" fill="#333" stroke-width="0"/><path d="M322.45,28.5h-21.68c-.79,0-1.29.81-.97,1.54,1.35,3.1,4.48,4.94,8.74,4.94,2.47,0,4.44-.53,6.18-1.62,1.2-.75,2.76-.59,3.72.45l2.38,2.59c.46.5.43,1.28-.06,1.76-2.97,2.84-7.17,4.32-12.46,4.32-11.16,0-18.42-7.02-18.42-16.62s7.38-16.62,17.22-16.62,16.8,6.36,16.8,16.74c0,.36-.03.8-.07,1.25-.06.72-.66,1.27-1.38,1.27ZM301.26,23.04h11.74c1.1,0,1.91-1.12,1.47-2.14-1.23-2.84-3.89-4.58-7.3-4.58s-6.15,1.71-7.37,4.59c-.43,1.01.37,2.13,1.47,2.13Z" fill="#333" stroke-width="0"/><path d="M366.74,23.52v17.36c0,.62-.5,1.12-1.12,1.12h-4.49c-2.07,0-3.75-1.68-3.75-3.75v-13.29c0-5.22-2.4-7.62-6.54-7.62-4.5,0-7.74,2.76-7.74,8.7v14.81c0,.63-.51,1.15-1.15,1.15h-5.27c-1.62,0-2.94-1.32-2.94-2.94V10.83c0-.62.5-1.12,1.12-1.12h6.01c1,0,1.82.81,1.82,1.82v.53c0,.52.61.8,1.01.46,2.47-2.13,5.84-3.28,9.67-3.28,7.62,0,13.38,4.44,13.38,14.28Z" fill="#333" stroke-width="0"/><path d="M398.11,36.49c.96,2.52-.61,5.33-3.28,5.76-.92.15-1.87.22-2.83.22-7.62,0-12.06-3.9-12.06-11.58v-12.68c0-.32-.26-.58-.58-.58h-1.84c-1.41,0-2.56-1.15-2.56-2.56v-3.5c0-.63.51-1.15,1.15-1.15h3.25c.32,0,.58-.26.58-.58V3.72c0-.63.51-1.14,1.14-1.14h6.11c1.16,0,2.1.94,2.1,2.1v5.18c0,.32.26.58.58.58h5.27c1.21,0,2.19.98,2.19,2.19v3.92c0,.6-.49,1.09-1.09,1.09h-6.37c-.32,0-.58.26-.58.58v12.56c0,2.76,1.5,4.26,4.02,4.26,1.15,0,2.3-.29,3.24-.84.29-.17.67-.03.79.29l.76,2Z" fill="#333" stroke-width="0"/><path d="M118.01,14.45c-2.82-2.65-6.62-4.27-10.8-4.27-8.72,0-15.79,7.07-15.79,15.79,0,5.21,2.53,9.83,6.42,12.71,2.62,1.94,5.86,3.08,9.37,3.08,8.72,0,15.79-7.07,15.79-15.79,0-4.54-1.92-8.63-4.98-11.51ZM107.57,38.04c-6.47,0-11.72-5.25-11.72-11.72,0-1.94.47-3.78,1.31-5.4l.11-.32.06.02c2-3.59,5.84-6.03,10.25-6.03,6.47,0,11.72,5.25,11.72,11.72s-5.25,11.72-11.72,11.72Z" fill="#333" stroke="#000" stroke-miterlimit="10" stroke-width=".48"/><path d="M106.48,41.52l-.04-1.11s0-.02.02-.02c.05.01.43,1,.45,1.03.13.32-.41.44-.43.1h0Z" fill="#000" stroke-width="0"/><path d="M109.26,41.46l-.23-1.08s0-.02.01-.02c.05,0,.59.91.63.93.19.29-.33.51-.41.17h0Z" fill="#000" stroke-width="0"/><path d="M111.99,40.91l-.42-1.02s0-.02.01-.03c.03-.02.75.81.78.81.24.26-.24.56-.37.24h0Z" fill="#000" stroke-width="0"/><path d="M114.58,39.9s-.62-.92-.58-.96c.03-.03.88.66.91.66.28.21-.14.59-.32.3h0Z" fill="#000" stroke-width="0"/><path d="M116.72,38.45s-.77-.8-.74-.85c.03-.03.98.5,1.01.5.31.16-.03.61-.27.35h0Z" fill="#000" stroke-width="0"/><path d="M118.81,36.61l-.87-.68s0-.04.02-.03c0,0,1.06.32,1.06.32.33.11.08.6-.2.39h0Z" fill="#000" stroke-width="0"/><path d="M120.55,34.44l-.98-.52s0-.04.01-.04c0,0,1.1.13,1.1.13.35.05.18.57-.13.42h0Z" fill="#000" stroke-width="0"/><path d="M121.65,32l-1.05-.34s-.02-.01-.01-.02c0,0,0-.01.02-.01l1.1-.06c.35,0,.28.53-.06.44h0Z" fill="#000" stroke-width="0"/><path d="M122.54,29.36l-1.1-.15s-.02-.03,0-.04c0,0,1.08-.25,1.08-.25.34-.07.37.48.02.44h0Z" fill="#000" stroke-width="0"/><path d="M122.96,26.61l-1.11.04s-.02,0-.02-.02c.01-.05,1-.43,1.03-.45.32-.13.44.41.1.43h0Z" fill="#000" stroke-width="0"/><path d="M122.9,23.83l-1.08.23s-.02,0-.02-.01c0,0,0-.02,0-.02l.93-.61c.29-.19.51.33.17.41h0Z" fill="#000" stroke-width="0"/><path d="M122.35,21.34l-1.02.42s-.02,0-.03-.01c-.02-.03.81-.75.81-.78.26-.24.56.24.24.37h0Z" fill="#000" stroke-width="0"/><path d="M121.34,18.99l-.94.59s-.04-.01-.03-.03c0,0,.66-.89.66-.89.21-.28.59.14.3.32h0Z" fill="#000" stroke-width="0"/><path d="M119.89,16.61l-.82.74s-.04,0-.03-.02c0,0,.5-.99.5-.99.16-.31.61.03.35.27h0Z" fill="#000" stroke-width="0"/><path d="M118.3,14.76l-.68.87s-.04,0-.03-.02c0,0,.32-1.06.32-1.06.11-.33.6-.08.39.2h0Z" fill="#000" stroke-width="0"/><path d="M116.12,13.02s-.49.99-.54.99c-.04-.01.13-1.1.12-1.12.05-.35.58-.18.42.13h0Z" fill="#000" stroke-width="0"/><path d="M113.68,11.68l-.34,1.05s-.01.02-.02.01c-.04-.03-.06-1.09-.08-1.12,0-.35.53-.28.44.06h0Z" fill="#000" stroke-width="0"/><path d="M111.29,10.79l-.15,1.1s-.03.02-.04,0c0,0-.25-1.08-.25-1.08-.07-.34.48-.37.44-.02h0Z" fill="#000" stroke-width="0"/><path d="M108.53,10.37l.04,1.11s0,.02-.02.02c-.05-.01-.43-1-.45-1.03-.13-.32.41-.44.43-.1h0Z" fill="#000" stroke-width="0"/><path d="M105.75,10.43l.23,1.08s0,.02-.01.02c-.05,0-.59-.91-.63-.93-.19-.29.33-.51.41-.17h0Z" fill="#000" stroke-width="0"/><path d="M103.02,10.74l.42,1.02s0,.02-.01.03c-.03.02-.75-.81-.78-.81-.24-.26.24-.56.37-.24h0Z" fill="#000" stroke-width="0"/><path d="M100.91,11.51l.59.94s-.01.04-.03.03c0,0-.89-.66-.89-.66-.28-.21.14-.59.32-.3h0Z" fill="#000" stroke-width="0"/><path d="M98.29,12.96s.77.8.74.85c-.03.03-.98-.5-1.01-.5-.31-.16.03-.61.27-.35h0Z" fill="#000" stroke-width="0"/><path d="M96.2,14.79s.89.65.88.71c-.02.03-1.06-.32-1.08-.31-.33-.11-.08-.6.2-.39h0Z" fill="#000" stroke-width="0"/><path d="M94.46,16.73s.99.49.99.54c0,0-.01.01-.02.01l-1.1-.13c-.35-.05-.18-.57.13-.42h0Z" fill="#000" stroke-width="0"/><path d="M93.12,19.17l1.05.34s.02.01.01.02c-.03.04-1.09.06-1.12.08-.35,0-.28-.53.06-.44h0Z" fill="#000" stroke-width="0"/><path d="M91.99,21.8l1.1.15s.02.01.02.02c-.02.05-1.06.25-1.09.27-.34.07-.37-.48-.02-.44h0Z" fill="#000" stroke-width="0"/><path d="M91.57,24.56l1.11-.04s.03.03,0,.04c0,0-1.02.44-1.02.44-.32.13-.44-.41-.1-.43h0Z" fill="#000" stroke-width="0"/><path d="M91.63,27.34l1.08-.23s.03.02.01.04c0,0-.93.61-.93.61-.29.19-.51-.33-.17-.41h0Z" fill="#000" stroke-width="0"/><path d="M92.18,30.07l1.02-.42s.02,0,.03.01c0,.05-.79.74-.81.78-.26.24-.56-.24-.24-.37h0Z" fill="#000" stroke-width="0"/><path d="M93.19,32.66l.94-.59s.04.01.03.03c0,0-.66.89-.66.89-.21.28-.59-.14-.3-.32h0Z" fill="#000" stroke-width="0"/><path d="M94.64,35.04l.82-.74s.02,0,.03,0c.03.03-.5.98-.5,1.01-.16.31-.61-.03-.35-.27h0Z" fill="#000" stroke-width="0"/><path d="M96.47,37.13l.68-.87s.04,0,.03.02c0,0-.32,1.06-.32,1.06-.11.33-.6.08-.39-.2h0Z" fill="#000" stroke-width="0"/><path d="M98.65,38.87s.49-.99.54-.99c.04.01-.13,1.1-.12,1.12-.05.35-.57.18-.42-.13h0Z" fill="#000" stroke-width="0"/><path d="M101.09,40.21l.34-1.05s.01-.02.02-.01c.04.03.06,1.09.08,1.12,0,.35-.53.28-.44-.06h0Z" fill="#000" stroke-width="0"/><path d="M103.73,41.1l.15-1.1s.01-.02.02-.02c.04.02.25,1.06.27,1.09.07.34-.48.37-.44.02h0Z" fill="#000" stroke-width="0"/><path d="M119.29,26.32c0,6.47-5.25,11.72-11.72,11.72s-11.72-5.25-11.72-11.72c0-1.94.47-3.78,1.31-5.4l-.87,2.63,1.13.37c-.19.78-.29,1.6-.29,2.45,0,2.56.93,4.9,2.47,6.71l-.69.81,2.41,1.96.61-.74c1.6,1.02,3.5,1.61,5.55,1.61,1.77,0,3.43-.44,4.89-1.23l.58.88,2.55-1.77-.66-.95c1.85-1.87,2.99-4.43,2.99-7.27,0-.48-.03-.95-.1-1.42l1.12-.26-.8-3-1.18.32c-1.39-2.99-4.18-5.2-7.52-5.81l.04-1.24h-3.11v1.15c-3.26.38-6.06,2.28-7.67,4.98l-1.26-.46c2-3.59,5.84-6.03,10.25-6.03,6.47,0,11.72,5.25,11.72,11.72Z" fill="#e0e0e0" stroke="#000" stroke-miterlimit="10" stroke-width=".48"/><path d="M117.72,24.96l1.12-.26-.8-3-1.18.32-5.45,1.45c-.49-.87-1.28-1.54-2.22-1.89l.15-5.37.04-1.24h-3.11v6.59c-.84.3-1.56.85-2.07,1.57l-5.6-2.03-1.26-.46c-.06.1-.11.2-.16.3l-.87,2.63,1.13.37,6.01,1.98c.06.71.29,1.38.65,1.95l-4.48,5.23-.69.81,2.41,1.96.61-.74,4.45-5.47c.41.13.85.21,1.3.21.3,0,.6-.03.89-.09l3.79,5.74.58.88,2.55-1.77-.66-.95-3.79-5.44c.42-.53.71-1.17.84-1.86l5.83-1.38ZM107.59,29.53c-2.24,0-4.06-1.82-4.06-4.06s1.82-4.06,4.06-4.06,4.06,1.82,4.06,4.06-1.82,4.06-4.06,4.06Z" fill="orange" stroke="#000" stroke-miterlimit="10" stroke-width=".48"/><path d="M107.59,21.42c-2.24,0-4.06,1.82-4.06,4.06s1.82,4.06,4.06,4.06,4.06-1.82,4.06-4.06-1.82-4.06-4.06-4.06ZM106.97,22.48s0-.01,0-.02v-.04h0s0,0,0,0h0s0-.01,0-.01c0,0,0-.01,0-.02,0,0,0,0,0,0,0,0,0,0,0-.01,0,0,0-.02,0-.03,0,0,0,0,0,0h0s0,0,0,0h0s0,0,0,0h0s0-.01,0-.01c0,0,0,0,0,0,0,0,0-.01,0-.02,0,0,0,0,0,0,0,0,0,0,0,0h0s0-.01,0-.02c0,0,0,0,0,0,0,0,0,0,0,0,0,0,0,0,0,0,0,0,0,0,0,0,0,0,0-.01,0-.02,0,0,0-.02.01-.02,0,0,0,0,0-.01,0,0,0,0,0-.01s0,0,0,0c0,0,0,0,0-.01,0,0,0,0,0,0,0,0,0,0,0,0t0,0s.01-.02.02-.02c0,0,0,0,0,0,0,0,0,0,0,0s0,0,0,0c0,0,0-.01.01-.01,0,0,0,0,.01-.01,0,0,0,0,0,0,0,0,0,0,.01,0,0,0,0,0,0,0h0s0,0,0,0h0s0,0,0,0h0s0,0,0,0c0,0,0,0,0,0,0,0,0,0,.01,0s0,0,.01,0c0,0,0,0,.01,0,0,0,0,0,0,0h0s0,0,0,0c0,0,0,0,0,0h0s0,0,0,0c0,0,0,0,.01,0,0,0,.01,0,.02,0,0,0,0,0,0,0,0,0,0,0,0,0t0,0s.02,0,.03,0h0s0,0,0,0h0s0,0,0,0h0s0,0,0,0c0,0,0,0,0,0h0s.01,0,.02,0c0,0,.01,0,.02,0,0,0,0,0,0,0h0s0,0,0,0c0,0,0,0,.01,0,0,0,0,0,0,0,0,0,0,0,.01,0,0,0,.01,0,.02,0,0,0,.01,0,.02,0h.04s.01,0,.02,0h.04s0,0,0,0h0s0,0,0,0c0,0,.01,0,.02,0,0,0,0,0,0,0,0,0,0,0,.01,0,0,0,.02,0,.03,0,0,0,0,0,0,0h0s0,0,0,0h0s0,0,0,0h0s0,0,.01,0c0,0,0,0,0,0,0,0,.01,0,.02,0,0,0,0,0,0,0h0s0,0,0,0c0,0,0,0,.01,0,0,0,0,0,0,0,0,0,0,0,0,0t0,0s0,0,0,0c0,0,.01,0,.02,0,.01,0,.02.01.04.02,0,0,0,0,.01,0,0,0,0,0,0,0,0,0,0,0,.01,0,0,0,0,0,0,0,0,0,0,0,0,0h0s.02.01.03.02c0,0,0,0,.01,0,0,0,.02.01.02.02,0,0,0,0,.01.01,0,0,0,0,0,0,0,0,0,0,0,.01,0,0,0,0,0,0h0s0,0,0,0c0,0,0,0,0,0h0s0,0,0,0c0,0,0,0,0,0,0,0,0,0,0,.01s0,0,0,.01c0,0,0,0,0,.01,0,0,0,0,0,0h0s0,0,0,0,0,0,0,0h0s0,0,0,.01c0,0,0,0,0,.01,0,0,0,.01,0,.02,0,0,0,0,0,0,0,0,0,0,0,0,0,0,0,0,0,0,0,0,0,.02,0,.03h0s0,.01,0,.01h0s0,0,0,0c0,0,0,0,0,0h0s0,.01,0,.02h0s0,.01,0,.02h0s0,0,0,.01h0s0,.01,0,.01c0,0,0,0,0,.01h0s0,0,0,.01c0,0,0,.01,0,.02,0,0,0,.01,0,.02v.04s0,.01,0,.02v.04h0s0,0,0,0h0s0,.01,0,.01c0,0,0,.01,0,.02,0,0,0,0,0,0h0s0,.01,0,.01c0,0,0,.02,0,.03,0,0,0,0,0,0h0s0,0,0,0h0s0,0,0,0c0,0,0,0,0,.01,0,0,0,0,0,0,0,0,0,.02,0,.02t0,0h0s0,.01,0,.02c0,0,0,0,0,0,0,0,0,0,0,0t0,0s0,0,0,0c0,0,0,.01,0,.02,0,0,0,.02-.01.02,0,0,0,0,0,.01,0,0,0,0,0,.01,0,0,0,0,0,0,0,0,0,0-.01.01,0,0,0,0,0,0h0s0,0,0,.01c0,0,0,0,0,0,0,0,0,0,0,0s0,0,0,0c0,0-.02.02-.03.03,0,0,0,0,0,0s0,0,0,0c0,0,0,0,0,0,0,0,0,0,0,0,0,0,0,0,0,0h0s0,0,0,.01c0,0,0,0,0,0,0,0,0,0,0,0,0,0,0,0-.01,0,0,0-.02.01-.03.02,0,0,0,0,0,0h0s0,0,0,0c0,0,0,0,0,0h0s0,0,0,0c0,0,0,0-.01,0,0,0-.01,0-.02,0,0,0,0,0,0,0,0,0,0,0,0,0,0,0,0,0,0,0,0,0-.02,0-.03,0h0s-.01,0-.02,0c0,0,0,0-.01,0,0,0-.02,0-.03,0h0s0,0,0,0h0s0,0,0,0c0,0,0,0-.01,0h0s0,0-.01,0c0,0,0,0-.02,0,0,0-.01,0-.02,0h-.04s-.01,0-.02,0h-.04s0,0,0,0h0s0,0,0,0c0,0-.01,0-.02,0,0,0,0,0,0,0h0s0,0,0,0c0,0-.02,0-.03,0,0,0,0,0,0,0h0s0,0,0,0h0s0,0,0,0c0,0,0,0-.01,0,0,0,0,0,0,0,0,0-.02,0-.02,0h0s0,0,0,0c0,0,0,0-.01,0,0,0,0,0,0,0,0,0,0,0,0,0t0,0s0,0,0,0c0,0-.01,0-.02,0-.01,0-.02-.01-.04-.02,0,0,0,0-.01,0,0,0,0,0,0,0,0,0,0,0-.01-.01,0,0,0,0,0,0t0,0s-.01,0-.02-.01c0,0,0,0,0,0h0s-.02-.02-.03-.04c0,0,0,0,0,0,0,0,0,0,0,0t0,0s0,0,0,0,0,0,0,0h0s0,0,0,0c0,0,0,0,0,0,0,0,0,0,0,0h0s0-.02,0-.02c0,0-.01-.02-.02-.03,0,0,0,0,0,0h0s0,0,0,0c0,0,0,0,0,0h0s0,0,0-.01c0,0,0,0,0-.01,0,0,0-.01,0-.02,0,0,0,0,0,0,0,0,0,0,0,0t0,0s0-.02,0-.03h0s0-.02,0-.02c0,0,0,0,0-.01,0-.01,0-.02,0-.03,0,0,0,0,0,0h0s0-.01,0-.01c0,0,0,0,0-.01h0s0,0,0-.01c0,0,0,0,0-.02,0,0,0-.01,0-.02v-.04ZM104.37,25.63c-.28-.18-.36-.55-.18-.83.18-.28.55-.36.83-.18.28.18.36.55.18.83s-.55.36-.83.18ZM106.4,28.32c-.18.28-.55.36-.83.18-.28-.18-.36-.55-.18-.83.18-.28.55-.36.83-.18.28.18.36.55.18.83ZM107.5,27.36c-.98,0-1.78-.8-1.78-1.78s.8-1.78,1.78-1.78,1.78.8,1.78,1.78-.79,1.78-1.78,1.78ZM109.75,28.56c-.18.28-.55.36-.83.18-.28-.18-.36-.55-.18-.83.18-.28.55-.36.83-.18.28.18.36.55.18.83ZM110.28,25.7c-.32-.09-.51-.41-.42-.73.09-.32.41-.51.73-.42.32.09.51.41.42.73-.09.32-.41.51-.73.42Z" fill="#e0e0e0" stroke="#000" stroke-linecap="round" stroke-linejoin="round" stroke-width=".11"/><path d="M108.17,22.46v.04s0,.01,0,.02c0,0,0,.02,0,.03h0s0,0,0,0c0,0,0,0,0,0h0s0,0,0,0h0s0,.02,0,.02c0,0,0,0,0,0,0,0,0,0,0,0h0s0,.02,0,.02c0,0,0,.01,0,.02h0s0,0,0,0h0s0,0,0,0c0,0,0,0,0,.01h0s0,0,0,0c0,0,0,.02,0,.02,0,0,0,0,0,0,0,0,0,0,0,.01,0,0,0,0,0,0,0,0,0,0,0,0t0,0s0,0,0,0c0,0,0,.01,0,.02,0,0,0,.02-.01.02,0,0,0,0,0,.01,0,0,0,0,0,.01,0,0,0,0,0,0,0,0,0,0-.01.01,0,0,0,0,0,0h0s0,.01-.01.02c0,0,0,0,0,0h0s0,0,0,0c0,0-.02.02-.03.03,0,0,0,0,0,0s0,0,0,0c0,0,0,0,0,0,0,0,0,0,0,0,0,0,0,0,0,0h0s0,0,0,0h0s0,0,0,0,0,0,0,0c-.01,0-.02.02-.04.02,0,0,0,0-.01,0,0,0,0,0,0,0,0,0,0,0,0,0,0,0,0,0,0,0,0,0,0,0,0,0h0s0,0,0,0c0,0,0,0-.01,0,0,0-.02,0-.03,0,0,0,0,0,0,0,0,0,0,0,0,0,0,0-.02,0-.03,0h0s0,0,0,0c0,0,0,0,0,0,0,0-.01,0-.02,0,0,0-.02,0-.03,0h0s0,0,0,0h0s0,0,0,0c0,0,0,0,0,0,0,0,0,0-.01,0h0s0,0-.01,0c0,0,0,0-.02,0,0,0-.01,0-.02,0h-.04s-.01,0-.02,0c0,0-.02,0-.03,0h0s0,0,0,0h0s0,0,0,0h0s-.01,0-.02,0c0,0,0,0,0,0,0,0,0,0,0,0h0s-.01,0-.02,0c0,0-.01,0-.02,0h0s0,0,0,0h0s0,0,0,0c0,0,0,0-.01,0h0s0,0,0,0c0,0-.02,0-.02,0,0,0,0,0,0,0,0,0,0,0-.01,0,0,0,0,0,0,0,0,0,0,0,0,0t0,0s0,0,0,0c0,0-.01,0-.02,0-.01,0-.02-.01-.04-.02,0,0,0,0-.01,0,0,0,0,0,0,0,0,0,0,0-.01-.01,0,0,0,0,0,0t0,0s-.01,0-.02-.01c0,0,0,0,0,0h0s-.02-.02-.03-.04c0,0,0,0,0,0,0,0,0,0,0,0t0,0s0,0,0,0,0,0,0,0h0s0,0,0,0c0,0,0,0,0,0,0,0,0,0,0,0,0-.01-.02-.02-.02-.04,0,0,0,0,0-.01,0,0,0,0,0,0,0,0,0,0,0,0h0s0-.01,0-.01h0s0,0,0-.01c0,0,0,0,0-.01,0,0,0-.02,0-.03,0,0,0,0,0,0t0,0s0-.02,0-.03h0s0,0,0,0c0,0,0,0,0,0,0,0,0-.01,0-.02,0-.01,0-.02,0-.03,0,0,0,0,0,0h0s0,0,0,0c0,0,0,0,0,0,0,0,0,0,0-.01h0s0,0,0-.01c0,0,0,0,0-.02,0,0,0-.01,0-.02v-.04s0-.01,0-.02c0,0,0-.02,0-.03h0s0,0,0,0c0,0,0,0,0,0h0s0,0,0,0h0s0-.02,0-.02c0,0,0,0,0,0,0,0,0,0,0,0h0s0-.02,0-.02c0,0,0-.01,0-.02h0s0,0,0,0h0s0,0,0,0h0s0-.01,0-.01h0s0,0,0,0c0,0,0-.01,0-.02,0,0,0-.01,0-.02,0,0,0,0,0-.01,0,0,0,0,0,0,0,0,0,0,0,0,0,0,0,0,0,0,0,0,0,0,0,0,0,0,0-.01,0-.02,0,0,0-.02.01-.02,0,0,0,0,0-.01,0,0,0,0,0-.01s0,0,0,0c0,0,0,0,0-.01,0,0,0,0,0,0,0,0,0,0,0,0t0,0s.01-.02.02-.02c0,0,0,0,0,0,0,0,0,0,0,0,0,0,.01-.01.02-.02,0,0,0,0,.01-.01,0,0,0,0,0,0,0,0,0,0,.01,0,0,0,0,0,0,0h0s0,0,0,0h0s0,0,0,0c0,0,0,0,0,0,.01,0,.02-.02.04-.02,0,0,0,0,.01,0,0,0,0,0,0,0,0,0,0,0,0,0,0,0,0,0,0,0,0,0,0,0,0,0h0s0,0,0,0c0,0,0,0,.01,0,0,0,.02,0,.03,0,0,0,0,0,0,0t0,0s.02,0,.03,0h0s0,0,0,0c0,0,0,0,0,0,0,0,.01,0,.02,0,0,0,.01,0,.02,0,0,0,.01,0,.02,0,0,0,0,0,0,0h0s0,0,0,0c0,0,0,0,0,0,0,0,0,0,.01,0,0,0,0,0,0,0,0,0,0,0,.01,0,0,0,.01,0,.02,0,0,0,.01,0,.02,0h.04s.01,0,.02,0c0,0,.02,0,.03,0h0s0,0,0,0h0s0,0,0,0h0s.01,0,.02,0c0,0,0,0,0,0,0,0,0,0,0,0h0s.01,0,.02,0c0,0,.01,0,.02,0h0s0,0,0,0h0s0,0,0,0h0s0,0,.01,0h0s0,0,0,0c0,0,.01,0,.02,0,0,0,.01,0,.02,0,0,0,0,0,.01,0,0,0,0,0,0,0,0,0,0,0,0,0t0,0s0,0,0,0c0,0,.01,0,.02,0,.01,0,.02.01.04.02,0,0,0,0,.01,0,0,0,0,0,0,0,0,0,0,0,.01,0,0,0,0,0,0,0,0,0,0,0,0,0h0s.02.01.03.02c0,0,0,0,.01,0,0,0,.02.01.02.02,0,0,0,0,.01.01,0,0,0,0,0,0,0,0,0,0,0,.01,0,0,0,0,0,0h0s0,0,0,0c0,0,0,0,0,0s0,0,0,0c0,.01.02.02.02.04,0,0,0,0,0,.01,0,0,0,0,0,0,0,0,0,0,0,0,0,0,0,0,0,0,0,0,0,0,0,0h0s0,0,0,.01c0,0,0,0,0,.01,0,0,0,.02,0,.03,0,0,0,0,0,0,0,0,0,0,0,0,0,0,0,.02,0,.03h0s0,0,0,0c0,0,0,0,0,0,0,0,0,.01,0,.02,0,0,0,.01,0,.02,0,0,0,0,0,.01h0s0,0,0,.01h0s0,0,0,0c0,0,0,0,0,0,0,0,0,0,0,.01h0s0,0,0,.01c0,0,0,.01,0,.02,0,0,0,.01,0,.02Z" fill="#000" stroke-width="0"/><path d="M111.02,25.28c-.09.32-.41.51-.73.42-.32-.09-.51-.41-.42-.73.09-.32.41-.51.73-.42.32.09.51.41.42.73Z" fill="#000" stroke-width="0"/><path d="M109.75,28.56c-.18.28-.55.36-.83.18-.28-.18-.36-.55-.18-.83.18-.28.55-.36.83-.18.28.18.36.55.18.83Z" fill="#000" stroke-width="0"/><path d="M105.2,25.45c-.18.28-.55.36-.83.18-.28-.18-.36-.55-.18-.83.18-.28.55-.36.83-.18.28.18.36.55.18.83Z" fill="#000" stroke-width="0"/><path d="M106.4,28.32c-.18.28-.55.36-.83.18-.28-.18-.36-.55-.18-.83.18-.28.55-.36.83-.18.28.18.36.55.18.83Z" fill="#000" stroke-width="0"/><circle cx="107.5" cy="25.58" r="1.78" fill="none" stroke="#000" stroke-linecap="round" stroke-linejoin="round" stroke-width=".11"/><path d="M161.01,14.45c-2.82-2.65-6.62-4.27-10.8-4.27-8.72,0-15.79,7.07-15.79,15.79,0,5.21,2.53,9.83,6.42,12.71,2.62,1.94,5.86,3.08,9.37,3.08,8.72,0,15.79-7.07,15.79-15.79,0-4.54-1.92-8.63-4.98-11.51ZM150.57,38.04c-6.47,0-11.72-5.25-11.72-11.72,0-1.94.47-3.78,1.31-5.4l.11-.32.06.02c2-3.59,5.84-6.03,10.25-6.03,6.47,0,11.72,5.25,11.72,11.72s-5.25,11.72-11.72,11.72Z" fill="#333" stroke="#000" stroke-miterlimit="10" stroke-width=".48"/><path d="M149.48,41.52l-.04-1.11s0-.02.02-.02c.05.01.43,1,.45,1.03.13.32-.41.44-.43.1h0Z" fill="#000" stroke-width="0"/><path d="M152.26,41.46l-.23-1.08s0-.02.01-.02c.05,0,.59.91.63.93.19.29-.33.51-.41.17h0Z" fill="#000" stroke-width="0"/><path d="M154.99,40.91l-.42-1.02s0-.02.01-.03c.03-.02.75.81.78.81.24.26-.24.56-.37.24h0Z" fill="#000" stroke-width="0"/><path d="M157.58,39.9s-.62-.92-.58-.96c.03-.03.88.66.91.66.28.21-.14.59-.32.3h0Z" fill="#000" stroke-width="0"/><path d="M159.72,38.45s-.77-.8-.74-.85c.03-.03.98.5,1.01.5.31.16-.03.61-.27.35h0Z" fill="#000" stroke-width="0"/><path d="M161.81,36.61l-.87-.68s0-.04.02-.03c0,0,1.06.32,1.06.32.33.11.08.6-.2.39h0Z" fill="#000" stroke-width="0"/><path d="M163.55,34.44l-.98-.52s0-.04.01-.04c0,0,1.1.13,1.1.13.35.05.18.57-.13.42h0Z" fill="#000" stroke-width="0"/><path d="M164.65,32l-1.05-.34s-.02-.01-.01-.02c0,0,0-.01.02-.01l1.1-.06c.35,0,.28.53-.06.44h0Z" fill="#000" stroke-width="0"/><path d="M165.54,29.36l-1.1-.15s-.02-.03,0-.04c0,0,1.08-.25,1.08-.25.34-.07.37.48.02.44h0Z" fill="#000" stroke-width="0"/><path d="M165.96,26.61l-1.11.04s-.02,0-.02-.02c.01-.05,1-.43,1.03-.45.32-.13.44.41.1.43h0Z" fill="#000" stroke-width="0"/><path d="M165.9,23.83l-1.08.23s-.02,0-.02-.01c0,0,0-.02,0-.02l.93-.61c.29-.19.51.33.17.41h0Z" fill="#000" stroke-width="0"/><path d="M165.35,21.34l-1.02.42s-.02,0-.03-.01c-.02-.03.81-.75.81-.78.26-.24.56.24.24.37h0Z" fill="#000" stroke-width="0"/><path d="M164.34,18.99l-.94.59s-.04-.01-.03-.03c0,0,.66-.89.66-.89.21-.28.59.14.3.32h0Z" fill="#000" stroke-width="0"/><path d="M162.89,16.61l-.82.74s-.04,0-.03-.02c0,0,.5-.99.5-.99.16-.31.61.03.35.27h0Z" fill="#000" stroke-width="0"/><path d="M161.3,14.76l-.68.87s-.04,0-.03-.02c0,0,.32-1.06.32-1.06.11-.33.6-.08.39.2h0Z" fill="#000" stroke-width="0"/><path d="M159.12,13.02s-.49.99-.54.99c-.04-.01.13-1.1.12-1.12.05-.35.58-.18.42.13h0Z" fill="#000" stroke-width="0"/><path d="M156.68,11.68l-.34,1.05s-.01.02-.02.01c-.04-.03-.06-1.09-.08-1.12,0-.35.53-.28.44.06h0Z" fill="#000" stroke-width="0"/><path d="M154.29,10.79l-.15,1.1s-.03.02-.04,0c0,0-.25-1.08-.25-1.08-.07-.34.48-.37.44-.02h0Z" fill="#000" stroke-width="0"/><path d="M151.53,10.37l.04,1.11s0,.02-.02.02c-.05-.01-.43-1-.45-1.03-.13-.32.41-.44.43-.1h0Z" fill="#000" stroke-width="0"/><path d="M148.75,10.43l.23,1.08s0,.02-.01.02c-.05,0-.59-.91-.63-.93-.19-.29.33-.51.41-.17h0Z" fill="#000" stroke-width="0"/><path d="M146.02,10.74l.42,1.02s0,.02-.01.03c-.03.02-.75-.81-.78-.81-.24-.26.24-.56.37-.24h0Z" fill="#000" stroke-width="0"/><path d="M143.91,11.51l.59.94s-.01.04-.03.03c0,0-.89-.66-.89-.66-.28-.21.14-.59.32-.3h0Z" fill="#000" stroke-width="0"/><path d="M141.29,12.96s.77.8.74.85c-.03.03-.98-.5-1.01-.5-.31-.16.03-.61.27-.35h0Z" fill="#000" stroke-width="0"/><path d="M139.2,14.79s.89.65.88.71c-.02.03-1.06-.32-1.08-.31-.33-.11-.08-.6.2-.39h0Z" fill="#000" stroke-width="0"/><path d="M137.46,16.73s.99.49.99.54c0,0-.01.01-.02.01l-1.1-.13c-.35-.05-.18-.57.13-.42h0Z" fill="#000" stroke-width="0"/><path d="M136.12,19.17l1.05.34s.02.01.01.02c-.03.04-1.09.06-1.12.08-.35,0-.28-.53.06-.44h0Z" fill="#000" stroke-width="0"/><path d="M134.99,21.8l1.1.15s.02.01.02.02c-.02.05-1.06.25-1.09.27-.34.07-.37-.48-.02-.44h0Z" fill="#000" stroke-width="0"/><path d="M134.57,24.56l1.11-.04s.03.03,0,.04c0,0-1.02.44-1.02.44-.32.13-.44-.41-.1-.43h0Z" fill="#000" stroke-width="0"/><path d="M134.63,27.34l1.08-.23s.03.02.01.04c0,0-.93.61-.93.61-.29.19-.51-.33-.17-.41h0Z" fill="#000" stroke-width="0"/><path d="M135.18,30.07l1.02-.42s.02,0,.03.01c0,.05-.79.74-.81.78-.26.24-.56-.24-.24-.37h0Z" fill="#000" stroke-width="0"/><path d="M136.19,32.66l.94-.59s.04.01.03.03c0,0-.66.89-.66.89-.21.28-.59-.14-.3-.32h0Z" fill="#000" stroke-width="0"/><path d="M137.64,35.04l.82-.74s.02,0,.03,0c.03.03-.5.98-.5,1.01-.16.31-.61-.03-.35-.27h0Z" fill="#000" stroke-width="0"/><path d="M139.47,37.13l.68-.87s.04,0,.03.02c0,0-.32,1.06-.32,1.06-.11.33-.6.08-.39-.2h0Z" fill="#000" stroke-width="0"/><path d="M141.65,38.87s.49-.99.54-.99c.04.01-.13,1.1-.12,1.12-.05.35-.57.18-.42-.13h0Z" fill="#000" stroke-width="0"/><path d="M144.09,40.21l.34-1.05s.01-.02.02-.01c.04.03.06,1.09.08,1.12,0,.35-.53.28-.44-.06h0Z" fill="#000" stroke-width="0"/><path d="M146.73,41.1l.15-1.1s.01-.02.02-.02c.04.02.25,1.06.27,1.09.07.34-.48.37-.44.02h0Z" fill="#000" stroke-width="0"/><path d="M162.29,26.32c0,6.47-5.25,11.72-11.72,11.72s-11.72-5.25-11.72-11.72c0-1.94.47-3.78,1.31-5.4l-.87,2.63,1.13.37c-.19.78-.29,1.6-.29,2.45,0,2.56.93,4.9,2.47,6.71l-.69.81,2.41,1.96.61-.74c1.6,1.02,3.5,1.61,5.55,1.61,1.77,0,3.43-.44,4.89-1.23l.58.88,2.55-1.77-.66-.95c1.85-1.87,2.99-4.43,2.99-7.27,0-.48-.03-.95-.1-1.42l1.12-.26-.8-3-1.18.32c-1.39-2.99-4.18-5.2-7.52-5.81l.04-1.24h-3.11v1.15c-3.26.38-6.06,2.28-7.67,4.98l-1.26-.46c2-3.59,5.84-6.03,10.25-6.03,6.47,0,11.72,5.25,11.72,11.72Z" fill="#e0e0e0" stroke="#000" stroke-miterlimit="10" stroke-width=".48"/><path d="M160.72,24.96l1.12-.26-.8-3-1.18.32-5.45,1.45c-.49-.87-1.28-1.54-2.22-1.89l.15-5.37.04-1.24h-3.11v6.59c-.84.3-1.56.85-2.07,1.57l-5.6-2.03-1.26-.46c-.06.1-.11.2-.16.3l-.87,2.63,1.13.37,6.01,1.98c.06.71.29,1.38.65,1.95l-4.48,5.23-.69.81,2.41,1.96.61-.74,4.45-5.47c.41.13.85.21,1.3.21.3,0,.6-.03.89-.09l3.79,5.74.58.88,2.55-1.77-.66-.95-3.79-5.44c.42-.53.71-1.17.84-1.86l5.83-1.38ZM150.59,29.53c-2.24,0-4.06-1.82-4.06-4.06s1.82-4.06,4.06-4.06,4.06,1.82,4.06,4.06-1.82,4.06-4.06,4.06Z" fill="orange" stroke="#000" stroke-miterlimit="10" stroke-width=".48"/><path d="M150.59,21.42c-2.24,0-4.06,1.82-4.06,4.06s1.82,4.06,4.06,4.06,4.06-1.82,4.06-4.06-1.82-4.06-4.06-4.06ZM149.97,22.48s0-.01,0-.02v-.04h0s0,0,0,0h0s0-.01,0-.01c0,0,0-.01,0-.02,0,0,0,0,0,0,0,0,0,0,0-.01,0,0,0-.02,0-.03,0,0,0,0,0,0h0s0,0,0,0h0s0,0,0,0h0s0-.01,0-.01c0,0,0,0,0,0,0,0,0-.01,0-.02,0,0,0,0,0,0,0,0,0,0,0,0h0s0-.01,0-.02c0,0,0,0,0,0,0,0,0,0,0,0,0,0,0,0,0,0,0,0,0,0,0,0,0,0,0-.01,0-.02,0,0,0-.02.01-.02,0,0,0,0,0-.01,0,0,0,0,0-.01s0,0,0,0c0,0,0,0,0-.01,0,0,0,0,0,0,0,0,0,0,0,0t0,0s.01-.02.02-.02c0,0,0,0,0,0,0,0,0,0,0,0s0,0,0,0c0,0,0-.01.01-.01,0,0,0,0,.01-.01,0,0,0,0,0,0,0,0,0,0,.01,0,0,0,0,0,0,0h0s0,0,0,0h0s0,0,0,0h0s0,0,0,0c0,0,0,0,0,0,0,0,0,0,.01,0s0,0,.01,0c0,0,0,0,.01,0,0,0,0,0,0,0h0s0,0,0,0c0,0,0,0,0,0h0s0,0,0,0c0,0,0,0,.01,0,0,0,.01,0,.02,0,0,0,0,0,0,0,0,0,0,0,0,0t0,0s.02,0,.03,0h0s0,0,0,0h0s0,0,0,0h0s0,0,0,0c0,0,0,0,0,0h0s.01,0,.02,0c0,0,.01,0,.02,0,0,0,0,0,0,0h0s0,0,0,0c0,0,0,0,.01,0,0,0,0,0,0,0,0,0,0,0,.01,0,0,0,.01,0,.02,0,0,0,.01,0,.02,0h.04s.01,0,.02,0h.04s0,0,0,0h0s0,0,0,0c0,0,.01,0,.02,0,0,0,0,0,0,0,0,0,0,0,.01,0,0,0,.02,0,.03,0,0,0,0,0,0,0h0s0,0,0,0h0s0,0,0,0h0s0,0,.01,0c0,0,0,0,0,0,0,0,.01,0,.02,0,0,0,0,0,0,0h0s0,0,0,0c0,0,0,0,.01,0,0,0,0,0,0,0,0,0,0,0,0,0t0,0s0,0,0,0c0,0,.01,0,.02,0,.01,0,.02.01.04.02,0,0,0,0,.01,0,0,0,0,0,0,0,0,0,0,0,.01,0,0,0,0,0,0,0,0,0,0,0,0,0h0s.02.01.03.02c0,0,0,0,.01,0,0,0,.02.01.02.02,0,0,0,0,.01.01,0,0,0,0,0,0,0,0,0,0,0,.01,0,0,0,0,0,0h0s0,0,0,0c0,0,0,0,0,0h0s0,0,0,0c0,0,0,0,0,0,0,0,0,0,0,.01s0,0,0,.01c0,0,0,0,0,.01,0,0,0,0,0,0h0s0,0,0,0,0,0,0,0h0s0,0,0,.01c0,0,0,0,0,.01,0,0,0,.01,0,.02,0,0,0,0,0,0,0,0,0,0,0,0,0,0,0,0,0,0,0,0,0,.02,0,.03h0s0,.01,0,.01h0s0,0,0,0c0,0,0,0,0,0h0s0,.01,0,.02h0s0,.01,0,.02h0s0,0,0,.01h0s0,.01,0,.01c0,0,0,0,0,.01h0s0,0,0,.01c0,0,0,.01,0,.02,0,0,0,.01,0,.02v.04s0,.01,0,.02v.04h0s0,0,0,0h0s0,.01,0,.01c0,0,0,.01,0,.02,0,0,0,0,0,0h0s0,.01,0,.01c0,0,0,.02,0,.03,0,0,0,0,0,0h0s0,0,0,0h0s0,0,0,0c0,0,0,0,0,.01,0,0,0,0,0,0,0,0,0,.02,0,.02t0,0h0s0,.01,0,.02c0,0,0,0,0,0,0,0,0,0,0,0t0,0s0,0,0,0c0,0,0,.01,0,.02,0,0,0,.02-.01.02,0,0,0,0,0,.01,0,0,0,0,0,.01,0,0,0,0,0,0,0,0,0,0-.01.01,0,0,0,0,0,0h0s0,0,0,.01c0,0,0,0,0,0,0,0,0,0,0,0s0,0,0,0c0,0-.02.02-.03.03,0,0,0,0,0,0s0,0,0,0c0,0,0,0,0,0,0,0,0,0,0,0,0,0,0,0,0,0h0s0,0,0,.01c0,0,0,0,0,0,0,0,0,0,0,0,0,0,0,0-.01,0,0,0-.02.01-.03.02,0,0,0,0,0,0h0s0,0,0,0c0,0,0,0,0,0h0s0,0,0,0c0,0,0,0-.01,0,0,0-.01,0-.02,0,0,0,0,0,0,0,0,0,0,0,0,0,0,0,0,0,0,0,0,0-.02,0-.03,0h0s-.01,0-.02,0c0,0,0,0-.01,0,0,0-.02,0-.03,0h0s0,0,0,0h0s0,0,0,0c0,0,0,0-.01,0h0s0,0-.01,0c0,0,0,0-.02,0,0,0-.01,0-.02,0h-.04s-.01,0-.02,0h-.04s0,0,0,0h0s0,0,0,0c0,0-.01,0-.02,0,0,0,0,0,0,0h0s0,0,0,0c0,0-.02,0-.03,0,0,0,0,0,0,0h0s0,0,0,0h0s0,0,0,0c0,0,0,0-.01,0,0,0,0,0,0,0,0,0-.02,0-.02,0h0s0,0,0,0c0,0,0,0-.01,0,0,0,0,0,0,0,0,0,0,0,0,0t0,0s0,0,0,0c0,0-.01,0-.02,0-.01,0-.02-.01-.04-.02,0,0,0,0-.01,0,0,0,0,0,0,0,0,0,0,0-.01-.01,0,0,0,0,0,0t0,0s-.01,0-.02-.01c0,0,0,0,0,0h0s-.02-.02-.03-.04c0,0,0,0,0,0,0,0,0,0,0,0t0,0s0,0,0,0,0,0,0,0h0s0,0,0,0c0,0,0,0,0,0,0,0,0,0,0,0h0s0-.02,0-.02c0,0-.01-.02-.02-.03,0,0,0,0,0,0h0s0,0,0,0c0,0,0,0,0,0h0s0,0,0-.01c0,0,0,0,0-.01,0,0,0-.01,0-.02,0,0,0,0,0,0,0,0,0,0,0,0t0,0s0-.02,0-.03h0s0-.02,0-.02c0,0,0,0,0-.01,0-.01,0-.02,0-.03,0,0,0,0,0,0h0s0-.01,0-.01c0,0,0,0,0-.01h0s0,0,0-.01c0,0,0,0,0-.02,0,0,0-.01,0-.02v-.04ZM147.37,25.63c-.28-.18-.36-.55-.18-.83.18-.28.55-.36.83-.18.28.18.36.55.18.83s-.55.36-.83.18ZM149.4,28.32c-.18.28-.55.36-.83.18-.28-.18-.36-.55-.18-.83.18-.28.55-.36.83-.18.28.18.36.55.18.83ZM150.5,27.36c-.98,0-1.78-.8-1.78-1.78s.8-1.78,1.78-1.78,1.78.8,1.78,1.78-.79,1.78-1.78,1.78ZM152.75,28.56c-.18.28-.55.36-.83.18-.28-.18-.36-.55-.18-.83.18-.28.55-.36.83-.18.28.18.36.55.18.83ZM153.28,25.7c-.32-.09-.51-.41-.42-.73.09-.32.41-.51.73-.42.32.09.51.41.42.73-.09.32-.41.51-.73.42Z" fill="#e0e0e0" stroke="#000" stroke-linecap="round" stroke-linejoin="round" stroke-width=".11"/><path d="M151.17,22.46v.04s0,.01,0,.02c0,0,0,.02,0,.03h0s0,0,0,0c0,0,0,0,0,0h0s0,0,0,0h0s0,.02,0,.02c0,0,0,0,0,0,0,0,0,0,0,0h0s0,.02,0,.02c0,0,0,.01,0,.02h0s0,0,0,0h0s0,0,0,0c0,0,0,0,0,.01h0s0,0,0,0c0,0,0,.02,0,.02,0,0,0,0,0,0,0,0,0,0,0,.01,0,0,0,0,0,0,0,0,0,0,0,0t0,0s0,0,0,0c0,0,0,.01,0,.02,0,0,0,.02-.01.02,0,0,0,0,0,.01,0,0,0,0,0,.01,0,0,0,0,0,0,0,0,0,0-.01.01,0,0,0,0,0,0h0s0,.01-.01.02c0,0,0,0,0,0h0s0,0,0,0c0,0-.02.02-.03.03,0,0,0,0,0,0s0,0,0,0c0,0,0,0,0,0,0,0,0,0,0,0,0,0,0,0,0,0h0s0,0,0,0h0s0,0,0,0,0,0,0,0c-.01,0-.02.02-.04.02,0,0,0,0-.01,0,0,0,0,0,0,0,0,0,0,0,0,0,0,0,0,0,0,0,0,0,0,0,0,0h0s0,0,0,0c0,0,0,0-.01,0,0,0-.02,0-.03,0,0,0,0,0,0,0,0,0,0,0,0,0,0,0-.02,0-.03,0h0s0,0,0,0c0,0,0,0,0,0,0,0-.01,0-.02,0,0,0-.02,0-.03,0h0s0,0,0,0h0s0,0,0,0c0,0,0,0,0,0,0,0,0,0-.01,0h0s0,0-.01,0c0,0,0,0-.02,0,0,0-.01,0-.02,0h-.04s-.01,0-.02,0c0,0-.02,0-.03,0h0s0,0,0,0h0s0,0,0,0h0s-.01,0-.02,0c0,0,0,0,0,0,0,0,0,0,0,0h0s-.01,0-.02,0c0,0-.01,0-.02,0h0s0,0,0,0h0s0,0,0,0c0,0,0,0-.01,0h0s0,0,0,0c0,0-.02,0-.02,0,0,0,0,0,0,0,0,0,0,0-.01,0,0,0,0,0,0,0,0,0,0,0,0,0t0,0s0,0,0,0c0,0-.01,0-.02,0-.01,0-.02-.01-.04-.02,0,0,0,0-.01,0,0,0,0,0,0,0,0,0,0,0-.01-.01,0,0,0,0,0,0t0,0s-.01,0-.02-.01c0,0,0,0,0,0h0s-.02-.02-.03-.04c0,0,0,0,0,0,0,0,0,0,0,0t0,0s0,0,0,0,0,0,0,0h0s0,0,0,0c0,0,0,0,0,0,0,0,0,0,0,0,0-.01-.02-.02-.02-.04,0,0,0,0,0-.01,0,0,0,0,0,0,0,0,0,0,0,0h0s0-.01,0-.01h0s0,0,0-.01c0,0,0,0,0-.01,0,0,0-.02,0-.03,0,0,0,0,0,0t0,0s0-.02,0-.03h0s0,0,0,0c0,0,0,0,0,0,0,0,0-.01,0-.02,0-.01,0-.02,0-.03,0,0,0,0,0,0h0s0,0,0,0c0,0,0,0,0,0,0,0,0,0,0-.01h0s0,0,0-.01c0,0,0,0,0-.02,0,0,0-.01,0-.02v-.04s0-.01,0-.02c0,0,0-.02,0-.03h0s0,0,0,0c0,0,0,0,0,0h0s0,0,0,0h0s0-.02,0-.02c0,0,0,0,0,0,0,0,0,0,0,0h0s0-.02,0-.02c0,0,0-.01,0-.02h0s0,0,0,0h0s0,0,0,0h0s0-.01,0-.01h0s0,0,0,0c0,0,0-.01,0-.02,0,0,0-.01,0-.02,0,0,0,0,0-.01,0,0,0,0,0,0,0,0,0,0,0,0,0,0,0,0,0,0,0,0,0,0,0,0,0,0,0-.01,0-.02,0,0,0-.02.01-.02,0,0,0,0,0-.01,0,0,0,0,0-.01s0,0,0,0c0,0,0,0,0-.01,0,0,0,0,0,0,0,0,0,0,0,0t0,0s.01-.02.02-.02c0,0,0,0,0,0,0,0,0,0,0,0,0,0,.01-.01.02-.02,0,0,0,0,.01-.01,0,0,0,0,0,0,0,0,0,0,.01,0,0,0,0,0,0,0h0s0,0,0,0h0s0,0,0,0c0,0,0,0,0,0,.01,0,.02-.02.04-.02,0,0,0,0,.01,0,0,0,0,0,0,0,0,0,0,0,0,0,0,0,0,0,0,0,0,0,0,0,0,0h0s0,0,0,0c0,0,0,0,.01,0,0,0,.02,0,.03,0,0,0,0,0,0,0t0,0s.02,0,.03,0h0s0,0,0,0c0,0,0,0,0,0,0,0,.01,0,.02,0,0,0,.01,0,.02,0,0,0,.01,0,.02,0,0,0,0,0,0,0h0s0,0,0,0c0,0,0,0,0,0,0,0,0,0,.01,0,0,0,0,0,0,0,0,0,0,0,.01,0,0,0,.01,0,.02,0,0,0,.01,0,.02,0h.04s.01,0,.02,0c0,0,.02,0,.03,0h0s0,0,0,0h0s0,0,0,0h0s.01,0,.02,0c0,0,0,0,0,0,0,0,0,0,0,0h0s.01,0,.02,0c0,0,.01,0,.02,0h0s0,0,0,0h0s0,0,0,0h0s0,0,.01,0h0s0,0,0,0c0,0,.01,0,.02,0,0,0,.01,0,.02,0,0,0,0,0,.01,0,0,0,0,0,0,0,0,0,0,0,0,0t0,0s0,0,0,0c0,0,.01,0,.02,0,.01,0,.02.01.04.02,0,0,0,0,.01,0,0,0,0,0,0,0,0,0,0,0,.01,0,0,0,0,0,0,0,0,0,0,0,0,0h0s.02.01.03.02c0,0,0,0,.01,0,0,0,.02.01.02.02,0,0,0,0,.01.01,0,0,0,0,0,0,0,0,0,0,0,.01,0,0,0,0,0,0h0s0,0,0,0c0,0,0,0,0,0s0,0,0,0c0,.01.02.02.02.04,0,0,0,0,0,.01,0,0,0,0,0,0,0,0,0,0,0,0,0,0,0,0,0,0,0,0,0,0,0,0h0s0,0,0,.01c0,0,0,0,0,.01,0,0,0,.02,0,.03,0,0,0,0,0,0,0,0,0,0,0,0,0,0,0,.02,0,.03h0s0,0,0,0c0,0,0,0,0,0,0,0,0,.01,0,.02,0,0,0,.01,0,.02,0,0,0,0,0,.01h0s0,0,0,.01h0s0,0,0,0c0,0,0,0,0,0,0,0,0,0,0,.01h0s0,0,0,.01c0,0,0,.01,0,.02,0,0,0,.01,0,.02Z" fill="#000" stroke-width="0"/><path d="M154.02,25.28c-.09.32-.41.51-.73.42-.32-.09-.51-.41-.42-.73.09-.32.41-.51.73-.42.32.09.51.41.42.73Z" fill="#000" stroke-width="0"/><path d="M152.75,28.56c-.18.28-.55.36-.83.18-.28-.18-.36-.55-.18-.83.18-.28.55-.36.83-.18.28.18.36.55.18.83Z" fill="#000" stroke-width="0"/><path d="M148.2,25.45c-.18.28-.55.36-.83.18-.28-.18-.36-.55-.18-.83.18-.28.55-.36.83-.18.28.18.36.55.18.83Z" fill="#000" stroke-width="0"/><path d="M149.4,28.32c-.18.28-.55.36-.83.18-.28-.18-.36-.55-.18-.83.18-.28.55-.36.83-.18.28.18.36.55.18.83Z" fill="#000" stroke-width="0"/><circle cx="150.5" cy="25.58" r="1.78" fill="none" stroke="#000" stroke-linecap="round" stroke-linejoin="round" stroke-width=".11"/><path d="M399.81,50.8c-119.64,2.63-239.48,6.99-359.05.07-8.54-.62-17.08-1.36-25.58-2.65-4.33-.75-8.6-1.32-12.67-3.25-2.13-.99-3.56-3.16-1.53-5.16,2.07-1.98,4.91-2.93,7.44-3.91,0,0,.65,1.84.65,1.84-2.39.91-4.86,1.71-6.71,3.38-.34.3-.43.6-.47.77,0,.59.93,1.08,1.49,1.41,3.66,1.76,8.03,2.41,12.08,3.13,8.4,1.31,16.92,1.99,25.43,2.6,17.03,1.16,34.12,1.74,51.2,2.16,68.37.43,136.74.79,205.11-.38,34.19-.49,68.37-1.13,102.55-1.97,0,0,.05,1.95.05,1.95h0Z" fill="#e0e0e0" stroke-width="0"/></g></svg>